<?xml version="1.0" encoding="utf-8"?>
<!-- Generator: Adobe Illustrator 18.0.0, SVG Export Plug-In . SVG Version: 6.00 Build 0)  -->
<!DOCTYPE svg PUBLIC "-//W3C//DTD SVG 1.1//EN" "http://www.w3.org/Graphics/SVG/1.1/DTD/svg11.dtd">
<svg version="1.1" id="Capa_1" xmlns="http://www.w3.org/2000/svg" xmlns:xlink="http://www.w3.org/1999/xlink" x="0px" y="0px"
	 viewBox="0 0 512 512" enable-background="new 0 0 512 512" xml:space="preserve">
<g>
	<g>
		<linearGradient id="SVGID_1_" gradientUnits="userSpaceOnUse" x1="313.6273" y1="-1.401531e-009" x2="313.6273" y2="511.9996">
			<stop  offset="0" style="stop-color:#54A3E1"/>
			<stop  offset="1" style="stop-color:#385BA2"/>
		</linearGradient>
		<path fill="url(#SVGID_1_)" d="M282.4,0c-23.6,0-15.7,50.5-15.7,50.5S216.2,189.8,167.9,227c-10.4,10.9-16.8,22.9-20.9,32.7l0,0
			l0,0c-0.9,2.4-1.8,4.7-2.5,6.8c-3.2,6.6-10.1,16.7-24.9,25.6l48.3,210.1c0,0,74.8,9.7,149.8,8.2c30,2.4,61.8,2.6,87.1-2.8
			c86-18.3,64.4-78.2,64.4-78.2c46.3-34.8,20-78.3,20-78.3c41.2-43,0.7-79.1,0.7-79.1s22.3-34.7-6.5-61
			c-35.9-32.8-133.2-11-133.2-11l0,0c-6.8,1.2-14,2.6-21.8,4.5c0,0-33.7,15.7,0-86.5C362.2,15.8,306,0,282.4,0z"/>
		<linearGradient id="SVGID_2_" gradientUnits="userSpaceOnUse" x1="68.9326" y1="295.0409" x2="68.9326" y2="505.0533">
			<stop  offset="0" style="stop-color:#54A3E1"/>
			<stop  offset="1" style="stop-color:#385BA2"/>
		</linearGradient>
		<path fill="url(#SVGID_2_)" d="M133.2,487.1L96.6,313.1c-2.1-9.9-12.1-18.1-22.3-18.1H4.4l-0.1,210h114.1
			C128.7,505.2,135.3,497,133.2,487.1z"/>
	</g>
</g>
</svg>
