<?xml version="1.0" encoding="utf-8"?>
<!-- Generator: Adobe Illustrator 18.0.0, SVG Export Plug-In . SVG Version: 6.00 Build 0)  -->
<!DOCTYPE svg PUBLIC "-//W3C//DTD SVG 1.1//EN" "http://www.w3.org/Graphics/SVG/1.1/DTD/svg11.dtd">
<svg version="1.1" id="Capa_1" xmlns="http://www.w3.org/2000/svg" xmlns:xlink="http://www.w3.org/1999/xlink" x="0px" y="0px"
	 viewBox="0 0 512 512" enable-background="new 0 0 512 512" xml:space="preserve">
<g>
	<g>
		<g>
			<g>
				<linearGradient id="SVGID_1_" gradientUnits="userSpaceOnUse" x1="119.6535" y1="272.701" x2="119.6535" y2="511.959">
					<stop  offset="0" style="stop-color:#54A3E1"/>
					<stop  offset="1" style="stop-color:#385BA2"/>
				</linearGradient>
				<path fill="url(#SVGID_1_)" d="M14,430.1c-18.7,18.7-18.7,49.1,0,67.8c9.4,9.4,21.6,14,33.9,14s24.5-4.7,33.9-14l157.4-157.5
					l-67.8-67.8L14,430.1z"/>
				<linearGradient id="SVGID_2_" gradientUnits="userSpaceOnUse" x1="401.0968" y1="3.995696e-002" x2="401.0968" y2="221.8452">
					<stop  offset="0" style="stop-color:#54A3E1"/>
					<stop  offset="1" style="stop-color:#385BA2"/>
				</linearGradient>
				<polygon fill="url(#SVGID_2_)" points="407.5,138.4 476.1,102.9 512,33.5 478.5,0 409.1,36 373.6,104.5 290.2,188 324,221.8 
									"/>
				<linearGradient id="SVGID_3_" gradientUnits="userSpaceOnUse" x1="256.2792" y1="3.995907e-002" x2="256.2792" y2="511.4816">
					<stop  offset="0" style="stop-color:#54A3E1"/>
					<stop  offset="1" style="stop-color:#385BA2"/>
				</linearGradient>
				<path fill="url(#SVGID_3_)" d="M422.5,320.3l-6.5-0.6c-11.7,0-22.8,2.4-33.1,6.2L186.1,129.1c3.8-10.4,6.2-21.4,6.2-33.1
					l-0.6-6.5C188.3,39.6,147.2,0,96.5,0C81.7,0,67.8,3.7,55.3,9.6l63.7,63.7c3.4,3.4,5.7,7.3,7.2,11.5c4.2,11.3,1.9,24.5-7.2,33.7
					c-6.2,6.2-14.4,9.4-22.6,9.4c-3.8,0-7.5-0.8-11.1-2.2c-4.2-1.6-8.2-3.8-11.5-7.2L10.1,54.8c-6,12.5-9.6,26.3-9.6,41.1
					c0,50.8,39.5,91.9,89.4,95.3l6.5,0.6c11.7,0,22.8-2.4,33.1-6.2l196.8,196.8c-3.8,10.4-6.2,21.4-6.2,33.1l0.7,6.5
					c3.3,49.9,44.5,89.4,95.2,89.4c14.8,0,28.6-3.5,41.1-9.6l-63.7-63.7c-3.3-3.3-5.7-7.3-7.3-11.5c-4.2-11.3-1.9-24.6,7.3-33.7
					c6.2-6.2,14.4-9.4,22.6-9.4c3.8,0,7.5,0.8,11.1,2.2c4.2,1.6,8.2,3.8,11.5,7.2l63.7,63.7c6-12.5,9.6-26.3,9.6-41.1
					C512,364.8,472.4,323.7,422.5,320.3z"/>
			</g>
		</g>
	</g>
</g>
</svg>
