<?xml version="1.0" encoding="utf-8"?>
<!-- Generator: Adobe Illustrator 18.0.0, SVG Export Plug-In . SVG Version: 6.00 Build 0)  -->
<!DOCTYPE svg PUBLIC "-//W3C//DTD SVG 1.1//EN" "http://www.w3.org/Graphics/SVG/1.1/DTD/svg11.dtd">
<svg version="1.1" id="Capa_1" xmlns="http://www.w3.org/2000/svg" xmlns:xlink="http://www.w3.org/1999/xlink" x="0px" y="0px"
	 viewBox="0 0 512 512" enable-background="new 0 0 512 512" xml:space="preserve">
<linearGradient id="SVGID_1_" gradientUnits="userSpaceOnUse" x1="255.9999" y1="-5.380571e-009" x2="255.9999" y2="512.0001">
	<stop  offset="0" style="stop-color:#FFFFFF;stop-opacity:0"/>
	<stop  offset="0" style="stop-color:#54A3E1"/>
	<stop  offset="1" style="stop-color:#385BA2"/>
</linearGradient>
<path fill="url(#SVGID_1_)" d="M382.4,243.5c19-1.6,35.7-9.6,49.7-23.9c48.1-49,46.6-158.2,46.6-162.9c-0.2-8.6-7.2-15.5-15.8-15.5
	l-79.3-0.1V7.9c0-4.4-3.5-7.9-7.9-7.9H136.2c-4.4,0-7.9,3.5-7.9,7.9v33.4L49,41.3c-8.6,0-15.6,6.9-15.8,15.5
	c-0.1,4.6-1.5,113.8,46.6,162.9c14,14.3,30.7,22.3,49.7,23.9c7.3,51,45.5,92.1,94.9,103.7v99.2h-39.9c-2.6,0-5,1.3-6.5,3.4
	l-34.7,49.7c-1.7,2.4-1.9,5.6-0.5,8.2c1.4,2.6,4.1,4.2,7,4.2c0,0,212.4,0,212.4,0c4.4,0,7.9-3.5,7.9-7.9c0-1.9-0.8-3.5-1.8-5
	L334,449.9c-1.5-2.1-3.9-3.4-6.5-3.4h-39.9v-99.2C337,335.6,375.2,294.5,382.4,243.5z M447,72.8c-1.5,34.9-9.8,96.7-37.3,124.7
	c-7.6,7.7-16.2,12.4-26,14V72.8L447,72.8z M65,72.8l63.2,0v138.8c-9.8-1.7-18.3-6.3-25.9-14C74.9,169.6,66.6,107.8,65,72.8z
	 M190.7,131.6l45.1-6.6L256,84.1l20.2,40.9l45.1,6.6l-32.7,31.8l7.7,45L256,187.2l-40.4,21.2l7.7-45L190.7,131.6z"/>
</svg>
