<?xml version="1.0" encoding="utf-8"?>
<!-- Generator: Adobe Illustrator 18.0.0, SVG Export Plug-In . SVG Version: 6.00 Build 0)  -->
<!DOCTYPE svg PUBLIC "-//W3C//DTD SVG 1.1//EN" "http://www.w3.org/Graphics/SVG/1.1/DTD/svg11.dtd">
<svg version="1.1" id="Capa_1" xmlns="http://www.w3.org/2000/svg" xmlns:xlink="http://www.w3.org/1999/xlink" x="0px" y="0px"
	 viewBox="0 0 512 512" enable-background="new 0 0 512 512" xml:space="preserve">
<linearGradient id="SVGID_1_" gradientUnits="userSpaceOnUse" x1="255.9988" y1="75.7619" x2="255.9988" y2="436.2381">
	<stop  offset="0" style="stop-color:#FFFFFF"/>
	<stop  offset="0" style="stop-color:#54A3E1"/>
	<stop  offset="1" style="stop-color:#385BA2"/>
</linearGradient>
<path fill="url(#SVGID_1_)" d="M0,138.9c0,6.7,5.4,12.1,12.1,12.1h33c5.3,19.3,23,33.5,44,33.5h33.6c0.3,6.4,5.6,11.6,12.1,11.6
	h36.4c5.1,12.6,13.9,23.5,25.2,31l27,18c9.8,6.6,21.3,10,33.1,10h103.3c0,5.3,0,12-0.2,19.3c-0.2,8.6-2.6,16.5-4.6,21.5
	c-1.9,4.9-1.7,10.3,0.8,14.9c2.4,4.6,6.7,7.9,11.8,9.1l12.4,2.8c1.1,4.6,4.7,8.2,9.4,9.2l7.8,1.6c-0.1,11.1-0.4,29.5-1.1,45.1
	c-0.9,18.9-2.3,47.4,33.4,55.7c5.9,1.4,12.2,2.1,18.8,2.1c21.2,0,46.6-7.6,55.5-24.6c8.4-16.2,8.4-33,8.4-103.5l0-16.1
	c0-59.8-19.9-106.5-31.7-134.4c-3-7.2-6.5-15.3-6.9-17.9c0-6.2,2-11.2,3.2-13.6c2.1-4.5,3.2-9.3,3.2-14.2c0-13.5-8.1-25.4-20.6-30.5
	l-7.8-3.2c-3.9-1.6-8.1-2.4-12.3-2.4h-262c-4.4,0-8.2,2.4-10.4,5.9h-32c-6.5,0-11.8,5.1-12.1,11.6H89.1c-21,0-38.6,14.2-44,33.5h-33
	C5.4,126.8,0,132.2,0,138.9z M243.5,209.1c0-6.7,5.4-12.1,12.1-12.1h24.2c6.7,0,12.1,5.4,12.1,12.1s-5.4,12.1-12.1,12.1h-24.2
	C248.9,221.2,243.5,215.8,243.5,209.1z M243.5,162.3c0-6.7,5.4-12.1,12.1-12.1h24.2c6.7,0,12.1,5.4,12.1,12.1s-5.4,12.1-12.1,12.1
	h-24.2C248.9,174.4,243.5,169,243.5,162.3z M243.5,115.4c0-6.7,5.4-12.1,12.1-12.1h24.2c6.7,0,12.1,5.4,12.1,12.1
	c0,6.7-5.4,12.1-12.1,12.1h-24.2C248.9,127.5,243.5,122.1,243.5,115.4z M146.8,105.9h18.1v66h-18.1V105.9z M67.6,138.9
	c0-11.8,9.6-21.4,21.4-21.4h33.3v42.8H89.1C77.2,160.3,67.6,150.7,67.6,138.9z"/>
</svg>
