<?xml version="1.0" encoding="utf-8"?>
<!-- Generator: Adobe Illustrator 18.0.0, SVG Export Plug-In . SVG Version: 6.00 Build 0)  -->
<!DOCTYPE svg PUBLIC "-//W3C//DTD SVG 1.1//EN" "http://www.w3.org/Graphics/SVG/1.1/DTD/svg11.dtd">
<svg version="1.1" id="Capa_1" xmlns="http://www.w3.org/2000/svg" xmlns:xlink="http://www.w3.org/1999/xlink" x="0px" y="0px"
	 viewBox="0 0 512 512" enable-background="new 0 0 512 512" xml:space="preserve">
<g>
	<path fill="#53A2E0" d="M393.8,137.8c-10.9,0-19.7-8.8-19.7-19.7V78.8c0-10.9,8.8-19.7,19.7-19.7h39.4c10.9,0,19.7,8.8,19.7,19.7
		v39.4c0,10.9-8.8,19.7-19.7,19.7H393.8z"/>
	<path fill="#53A2E0" d="M256,180.9c-14.3,0-27.5,4.2-38.9,11.1c3.5-1.1,7.2-1.8,11.1-1.8c21,0,38.1,17,38.1,38.1
		c0,21-17,38.1-38.1,38.1s-38.1-17.1-38.1-38.1c0-3.9,0.8-7.6,1.9-11.1c-6.9,11.4-11.1,24.6-11.1,38.9c0,41.5,33.6,75.1,75.1,75.1
		c41.5,0,75.1-33.6,75.1-75.1S297.5,180.9,256,180.9z"/>
	<g>
		<path fill="#53A2E0" d="M256,137.8c65.2,0,118.2,52.9,118.2,118.2S321.2,374.2,256,374.2c-65.2,0-118.2-52.9-118.2-118.2
			S190.8,137.8,256,137.8 M256,98.5c-86.9,0-157.5,70.7-157.5,157.5S169.1,413.5,256,413.5S413.5,342.9,413.5,256
			S342.9,98.5,256,98.5L256,98.5z"/>
	</g>
	<path fill="#53A2E0" d="M416,0H96C43,0,0,43,0,96v320c0,53,43,96,96,96h320c53,0,96-43,96-96V96C512,43,469,0,416,0z M472.6,177.2
		H343.9c18.8,20.9,30.3,48.5,30.3,78.8c0,65.3-52.9,118.2-118.2,118.2c-65.2,0-118.2-52.9-118.2-118.2c0-30.3,11.5-57.9,30.3-78.8
		H39.4V96c0-31.2,25.4-56.6,56.6-56.6h320c31.2,0,56.6,25.4,56.6,56.6V177.2z"/>
</g>
</svg>
