<?xml version="1.0" encoding="utf-8"?>
<!-- Generator: Adobe Illustrator 18.0.0, SVG Export Plug-In . SVG Version: 6.00 Build 0)  -->
<!DOCTYPE svg PUBLIC "-//W3C//DTD SVG 1.1//EN" "http://www.w3.org/Graphics/SVG/1.1/DTD/svg11.dtd">
<svg version="1.1" id="Capa_1" xmlns="http://www.w3.org/2000/svg" xmlns:xlink="http://www.w3.org/1999/xlink" x="0px" y="0px"
	 viewBox="0 0 512 512" enable-background="new 0 0 512 512" xml:space="preserve">
<g>
	<g>
		<g>
			<path fill="#6F6F6F" d="M477.9,0H34.1C15.3,0,0,15.3,0,34.1v443.7C0,496.7,15.3,512,34.1,512h443.7c18.8,0,34.1-15.3,34.1-34.1
				V34.1C512,15.3,496.7,0,477.9,0z M477.9,477.9H34.1V34.1h443.7L477.9,477.9L477.9,477.9z"/>
			<path fill="#6F6F6F" d="M119.5,273.1h273.1c9.4,0,17.1-7.7,17.1-17.1c0-9.4-7.7-17.1-17.1-17.1H119.5c-9.4,0-17.1,7.6-17.1,17.1
				C102.4,265.4,110,273.1,119.5,273.1z"/>
			<path fill="#6F6F6F" d="M119.5,170.7h273.1c9.4,0,17.1-7.6,17.1-17.1c0-9.4-7.7-17.1-17.1-17.1H119.5c-9.4,0-17.1,7.6-17.1,17.1
				C102.4,163,110,170.7,119.5,170.7z"/>
			<path fill="#6F6F6F" d="M119.5,375.5h273.1c9.4,0,17.1-7.7,17.1-17.1c0-9.4-7.7-17.1-17.1-17.1H119.5c-9.4,0-17.1,7.7-17.1,17.1
				C102.4,367.8,110,375.5,119.5,375.5z"/>
		</g>
	</g>
</g>
</svg>
